<?xml version="1.0" encoding="utf-8"?>
<!-- Generator: Adobe Illustrator 21.0.2, SVG Export Plug-In . SVG Version: 6.00 Build 0)  -->
<svg version="1.1" xmlns="http://www.w3.org/2000/svg" xmlns:xlink="http://www.w3.org/1999/xlink" x="0px" y="0px"
	 viewBox="0 0 2304 2304" style="enable-background:new 0 0 2304 2304;" xml:space="preserve">
<style type="text/css">
	.st0{fill:#1E93D1;}
	.st1{display:none;}
	.st2{display:inline;}
</style>
<g id="Layer_1">
	<g>
		<g>
			<path class="st0" d="M1265,1372.6v-52.8c0-64.4-50.6-116.5-112.9-116.5c-62.4,0-113,52.2-113,116.5v52.8
				c0,64.4,50.6,116.5,113,116.5C1214.4,1489.1,1265,1436.9,1265,1372.6z M1342.5,1437.1L1342.5,1437.1
				c-25.1,84.5-100.5,146.5-190.5,146.5c-90,0-165.5-62.1-190.5-146.6H183.4c-49.1,0-95.5-11.8-137.2-32.2v532.9
				c0,104,82.5,189.2,183.4,189.2h1844.7c100.9,0,183.4-85.1,183.4-189.2v-532.8c-41.7,20.4-88.1,32.2-137.2,32.2H1342.5z
				 M2113,480.2h-440.3c-26.6-171.5-170.7-303.1-344.3-303.1H975.6c-173.7,0-317.7,131.6-344.3,303.1H191.1
				C86,480.2,0,565.3,0,669.4V1106c0,104.5,82.1,189.2,183.4,189.2h769.5c2.6-54.4,25.3-103.3,61.1-138.7c1.1-1.1,2.4-1.9,3.5-3
				c7.9-7.5,16.2-14.6,25.2-20.8c3.2-2.2,6.9-3.7,10.2-5.7c7.4-4.4,14.8-9,22.8-12.4c6.3-2.7,13.1-4.3,19.7-6.3
				c5.7-1.8,11.1-4.1,17-5.3c12.8-2.7,26-4.1,39.6-4.1c13.6,0,26.8,1.5,39.6,4.1c5.9,1.2,11.3,3.5,17,5.3c6.6,2,13.4,3.6,19.7,6.3
				c8,3.4,15.3,7.9,22.7,12.3c3.4,2,7.1,3.6,10.3,5.8c9.1,6.1,17.3,13.2,25.2,20.7c1.2,1.1,2.5,1.9,3.6,3.1
				c35.8,35.4,58.5,84.3,61.1,138.7h769.5c101.3,0,183.4-84.7,183.4-189.2V669.5C2304.1,565.3,2218.1,480.2,2113,480.2z
				 M807.9,480.2c23.4-72.9,89.3-126,167.7-126h352.8c78.4,0,144.3,53.1,167.7,126H807.9z"/>
		</g>
	</g>
</g>
<g id="Layer_2" class="st1">
	<path class="st2" d="M1152,0.5c-439.6,0-797.2,341.7-797.2,761.8c0,169.2,113,445,345.6,843.2c164.5,281.6,326.3,516.5,333.1,526.4
		l118.5,171.6l118.5-171.6c6.8-9.9,168.6-244.7,333.1-526.4c232.6-398.2,345.6-674.1,345.6-843.2C1949.2,342.2,1591.6,0.5,1152,0.5z
		 M1152,1152c-228.2,0-413.2-176.8-413.2-394.9c0-218.1,185-394.9,413.2-394.9c228.2,0,413.2,176.8,413.2,394.9
		C1565.2,975.2,1380.2,1152,1152,1152z"/>
</g>
</svg>
