<?xml version="1.0" encoding="utf-8"?>
<!-- Generator: Adobe Illustrator 21.0.0, SVG Export Plug-In . SVG Version: 6.00 Build 0)  -->
<svg version="1.1" id="Layer_1" xmlns="http://www.w3.org/2000/svg" xmlns:xlink="http://www.w3.org/1999/xlink" x="0px" y="0px"
	 viewBox="0 0 2304 2304" style="enable-background:new 0 0 2304 2304;" xml:space="preserve">
<style type="text/css">
	.st0{fill:url(#SVGID_1_);}
</style>
<g>
	<g>
		<linearGradient id="SVGID_1_" gradientUnits="userSpaceOnUse" x1="1152" y1="-9.094947e-13" x2="1152" y2="2304">
			<stop  offset="0" style="stop-color:#F7941D"/>
			<stop  offset="0.5093" style="stop-color:#F9EA32"/>
			<stop  offset="0.5184" style="stop-color:#F9ED32"/>
		</linearGradient>
		<path class="st0" d="M501.8,1021.5c0.5,0,0.5,0,1,0c0.5,0,0.5,0,1,0C650.1,1020.1,629,827.9,629,827.9
			c-5.8-128.1-115.2-127.2-126.3-126.7c-10.6-0.5-120-1.4-126.3,126.7C376.5,827.9,355.3,1019.6,501.8,1021.5z M935.3,701.1
			c-10.6-0.5-120-1.4-126.3,126.7c0,0-21.1,192.3,125.3,193.6c0,0,0.5,0,1,0c0.5,0,0.5,0,1,0c146.4-1.4,125.3-193.6,125.3-193.6
			C1055.8,699.7,946.4,700.7,935.3,701.1z M1367.5,701.1c-10.6-0.5-120-1.4-126.3,126.7c0,0-21.1,192.3,125.3,193.6c0.5,0,1,0,1,0
			c0.5,0,0.5,0,1,0c146.4-1.4,125.3-193.6,125.3-193.6C1488,699.7,1378.5,700.7,1367.5,701.1z M1673.8,827.9
			c0,0-21.1,192.3,125.3,193.6c0.5,0,0.5,0,1,0c0.5,0,0.5,0,1,0c146.4-1.4,125.3-193.6,125.3-193.6
			c-5.8-128.1-115.2-127.2-126.3-126.7C1789.5,700.7,1680,699.3,1673.8,827.9z M2049.3,1152c-13-12.7-19.2-18.8-33.1-28.7
			c-54.3-39.1-121-65.9-121-65.9l-50.9,157.8l-29.8-82.9c53.3-73-6.2-75.4-14.4-74.9c-8.2,0-67.7,1.9-14.4,74.9l-29.8,82.9
			l-50.9-157.8c0,0-66.7,26.4-121,65.9c-54.3-39.1-121-65.9-121-65.9l-50.9,157.8l-29.8-82.9c53.3-73-6.2-75.4-14.4-74.9
			c-8.2,0-67.7,1.9-14.4,74.9l-29.8,82.9l-50.9-157.8c0,0-66.7,26.4-121,65.9c-54.3-39.1-121-65.9-121-65.9L980,1215.1l-29.8-82.9
			c53.3-73-6.2-75.4-14.4-74.9c-8.2,0-67.7,1.9-14.4,74.9l-29.8,82.9l-50.9-157.8c0,0-66.7,26.4-121,65.9
			c-54.3-39.1-121-65.9-121-65.9l-50.9,157.8l-29.8-82.9c53.3-73-6.2-75.4-14.4-74.9c-8.2,0-67.7,1.9-14.4,74.9l-29.8,82.9
			l-50.9-157.8c0,0-66.7,26.4-121,65.9c-14.4,10.4-20.6,16.5-33.1,28.7c-30.2,29.7-17.3,200.7,0,263.4
			c17.3,62.7,68.7,152.7,68.7,152.7c10.1,23.1,16.8,47.1,19.2,72.1l64.3,628.5c1.9,19.8,19.2,35.3,39.9,35.3h56.7h56.7
			c20.6,0,37.5-15.1,39.9-35.3l65.3-628.5c2.4-25,9.1-49,19.2-72.1c0,0,17.3-30.6,35.5-68.8c17.8,38.1,35.5,68.8,35.5,68.8
			c10.1,23.1,16.8,47.1,19.2,72.1l64.3,628.5c1.9,19.8,19.2,35.3,39.9,35.3h56.7H992c20.7,0,37.5-15.1,39.9-35.3l65.3-628.5
			c2.4-25,9.1-49,19.2-72.1c0,0,17.3-30.6,35.5-68.8c17.8,38.1,35.5,68.8,35.5,68.8c10.1,23.1,16.8,47.1,19.2,72.1l64.8,628.5
			c1.9,19.8,19.2,35.3,39.9,35.3h56.2h56.7c20.6,0,37.5-15.1,39.9-35.3l65.3-628.5c2.4-25,9.1-49,19.2-72.1c0,0,17.3-30.6,35.5-68.8
			c17.8,38.1,35.5,68.8,35.5,68.8c10.1,23.1,16.8,47.1,19.2,72.1l65.3,628.5c1.9,19.8,19.2,35.3,39.9,35.3h56.7h56.7
			c20.6,0,37.4-15.1,39.8-35.3l65.3-628.5c2.4-25,9.1-49,19.2-72.1c0,0,50.9-90,68.7-152.7C2067,1352.7,2079.5,1181.2,2049.3,1152z
			 M719.7,668.2c0.5,0,0.5,0,1,0c0.5,0,0.5,0,1,0C868.1,666.7,847,474.5,847,474.5c-5.8-128.6-115.2-127.2-126.3-126.8
			c-10.6-0.5-120-1.4-126.3,126.8C594.4,474.5,573.3,666.7,719.7,668.2z M1027,474.5c0,0-21.1,192.2,125.3,193.6c0.5,0,0.5,0,1,0
			c0.5,0,0.5,0,1,0c146.4-1.4,125.3-193.6,125.3-193.6c-5.8-128.6-115.2-127.2-126.3-126.8C1142.3,347.3,1032.8,346.4,1027,474.5z
			 M1459.2,474.5c0,0-21.1,192.2,125.3,193.6c0.5,0,0.5,0,1,0c0.5,0,0.5,0,1,0c146.4-1.4,125.3-193.6,125.3-193.6
			c-5.8-128.6-115.2-127.2-126.3-126.8C1574.9,347.3,1465.4,346.4,1459.2,474.5z M935.8,320.5c0.5,0,0.5,0,1,0s0.5,0,1,0
			c146.4-1.4,125.3-193.7,125.3-193.7C1057.3-1.8,947.8-0.4,936.8,0.1c-10.6-0.5-120-1.4-126.3,126.7
			C810.5,126.8,789.4,319,935.8,320.5z M1368.4,320.5c0.5,0,0.5,0,1,0c0.5,0,0.5,0,1,0c146.4-1.4,125.3-193.7,125.3-193.7
			C1489.9-1.8,1380.4-0.4,1369.4,0.1c-10.6-0.5-120-1.4-126.3,126.7C1243.1,126.8,1222,319,1368.4,320.5z"/>
	</g>
</g>
</svg>
