<?xml version="1.0" encoding="utf-8"?>
<!-- Generator: Adobe Illustrator 19.2.1, SVG Export Plug-In . SVG Version: 6.00 Build 0)  -->
<svg version="1.1" id="Layer_1" xmlns="http://www.w3.org/2000/svg" xmlns:xlink="http://www.w3.org/1999/xlink" x="0px" y="0px"
	 viewBox="0 0 34 34" style="enable-background:new 0 0 34 34;" xml:space="preserve">
<style type="text/css">
	.st0{fill-rule:evenodd;clip-rule:evenodd;fill:url(#SVGID_1_);}
	.st1{fill-rule:evenodd;clip-rule:evenodd;fill:#FFFFFF;}
	.st2{fill-rule:evenodd;clip-rule:evenodd;fill:url(#SVGID_2_);}
	.st3{fill:#FFFFFF;}
</style>
<g>
	<linearGradient id="SVGID_1_" gradientUnits="userSpaceOnUse" x1="13" y1="18" x2="13" y2="4">
		<stop  offset="0" style="stop-color:#B0E8CD"/>
		<stop  offset="1" style="stop-color:#56CAD8"/>
	</linearGradient>
	<path class="st0" d="M3.6,4h18.7C23.8,4,25,5.2,25,6.6v8.7c0,1.5-1.2,2.6-2.6,2.6H3.6C2.2,18,1,16.8,1,15.4V6.6C1,5.2,2.2,4,3.6,4z
		"/>
	<path class="st1" d="M12.6,7.5c1.9,0,3.5,1.6,3.5,3.5c0,1.9-1.6,3.5-3.5,3.5S9.1,13,9.1,11.1C9.1,9.1,10.7,7.5,12.6,7.5z"/>
</g>
<g>
	<g>
		<linearGradient id="SVGID_2_" gradientUnits="userSpaceOnUse" x1="19" y1="29" x2="19" y2="13">
			<stop  offset="0" style="stop-color:#B0E8CD"/>
			<stop  offset="1" style="stop-color:#56CAD8"/>
		</linearGradient>
		<path class="st2" d="M9.6,29c-2,0-3.6-1.6-3.6-3.6v-8.7c0-2,1.6-3.6,3.6-3.6h18.7c2,0,3.6,1.6,3.6,3.6v8.7c0,2-1.6,3.6-3.6,3.6
			H9.6z"/>
		<path class="st3" d="M28.4,14c1.5,0,2.6,1.2,2.6,2.6v8.7c0,1.5-1.2,2.6-2.6,2.6H9.6C8.2,28,7,26.8,7,25.4v-8.7
			C7,15.2,8.2,14,9.6,14H28.4 M28.4,12H9.6C7.1,12,5,14.1,5,16.6v8.7C5,27.9,7.1,30,9.6,30h18.7c2.6,0,4.6-2.1,4.6-4.6v-8.7
			C33,14.1,30.9,12,28.4,12L28.4,12z"/>
	</g>
	<path class="st1" d="M18.6,17.5c1.9,0,3.5,1.6,3.5,3.5c0,1.9-1.6,3.5-3.5,3.5s-3.5-1.6-3.5-3.5C15.1,19.1,16.7,17.5,18.6,17.5z"/>
</g>
</svg>
