<?xml version="1.0" encoding="utf-8"?>
<!-- Generator: Adobe Illustrator 19.2.1, SVG Export Plug-In . SVG Version: 6.00 Build 0)  -->
<svg version="1.1" id="Layer_1" xmlns="http://www.w3.org/2000/svg" xmlns:xlink="http://www.w3.org/1999/xlink" x="0px" y="0px"
	 viewBox="0 0 34 34" style="enable-background:new 0 0 34 34;" xml:space="preserve">
<style type="text/css">
	.st0{fill-rule:evenodd;clip-rule:evenodd;fill:url(#SVGID_1_);}
</style>
<linearGradient id="SVGID_1_" gradientUnits="userSpaceOnUse" x1="16.9812" y1="31" x2="16.9812" y2="3">
	<stop  offset="0" style="stop-color:#FCB3A4"/>
	<stop  offset="1" style="stop-color:#DA5899"/>
</linearGradient>
<path class="st0" d="M28.5,31h-2.1c-0.8,0-1.4-0.6-1.4-1.4v-0.1V10.6v-0.1c0-0.8,0.7-1.4,1.4-1.4h2.1c0.7,0,1.4,0.6,1.4,1.3v0.3
	v18.8v0.2C29.9,30.4,29.3,31,28.5,31z M23.1,4.6l-0.3,9.1c0,0,0,0,0,0c0,0.1-0.1,0.3-0.2,0.4c-0.2,0.3-0.7,0.3-0.9,0l0,0l-1.2-1.4
	c0,0,0,0,0,0c0,0,0,0,0,0c-0.5-0.5-1.3-0.5-1.9,0c-4.6,4-10.1,3.2-13.6,2.1c-0.1,0-0.2-0.1-0.2-0.1c-0.3-0.2-0.3-0.7,0-0.9
	c0.1-0.1,0.2-0.2,0.3-0.2c0,0,0,0,0,0c0.1,0,0.1,0,0.2,0c0,0,0,0,0,0c3.5-0.2,6.1-2.2,8.8-5l0,0c0.5-0.6,0.5-1.4,0-2c0,0,0,0,0,0
	c0,0,0,0,0,0l-1.8-1.7l0,0c-0.3-0.2-0.3-0.7,0-0.9c0.1-0.1,0.3-0.2,0.4-0.2c0,0,0,0,0,0L21.4,3l0.3,0c0.3,0,0.7,0.2,0.9,0.4
	c0.3,0.3,0.4,0.7,0.4,1L23.1,4.6C23.1,4.5,23.1,4.5,23.1,4.6z M5.5,21h2h0c0.7,0,1.3,0.6,1.4,1.3v0.3v6.8v0.3
	C8.9,30.4,8.3,31,7.5,31H5.4C4.7,31,4,30.4,4,29.6v0v-7.1v0C4,21.6,4.6,21,5.5,21L5.5,21z M12.4,19L12.4,19h2.1h0
	c0.7,0,1.3,0.6,1.4,1.3v0.3v8.8v0.3c-0.1,0.7-0.7,1.3-1.4,1.3h-2.1c-0.8,0-1.4-0.6-1.4-1.4v0v-9.1v0C11,19.6,11.6,19,12.4,19z
	 M19.3,16h0.2h1.8h0.3c0.7,0,1.3,0.7,1.3,1.4v12.1c0,0.8-0.6,1.4-1.4,1.4h-0.1h-2h0c-0.8,0-1.4-0.6-1.4-1.3v-0.2V17.5v-0.2
	C18.1,16.6,18.6,16,19.3,16z"/>
</svg>
